<?xml version="1.0" encoding="utf-8"?>
<!-- Generator: Adobe Illustrator 18.0.0, SVG Export Plug-In . SVG Version: 6.00 Build 0)  -->
<!DOCTYPE svg PUBLIC "-//W3C//DTD SVG 1.1//EN" "http://www.w3.org/Graphics/SVG/1.1/DTD/svg11.dtd">
<svg version="1.1" id="Layer_1" xmlns="http://www.w3.org/2000/svg" xmlns:xlink="http://www.w3.org/1999/xlink" x="0px" y="0px"
	 viewBox="0 0 61.5 62" enable-background="new 0 0 61.5 62" xml:space="preserve">
<g>
	<path fill="#F9F3F6" d="M45.2,34.7H17.3v-11c0-1.1,0.9-2,2-2h23.8c1.1,0,2,0.9,2,2V34.7z M45.2,34.7"/>
	<path fill="#F6ECEE" d="M43.2,21.7h-6c1.1,0,2,0.9,2,2v4.1c0,0.9-0.7,1.6-1.6,1.6H17.3v5.3h27.8v-11C45.2,22.6,44.3,21.7,43.2,21.7
		L43.2,21.7z M43.2,21.7"/>
	<path fill="#F9F3F6" d="M50.9,44.8H11.6v-11c0-1.1,0.9-2,2-2h35.2c1.1,0,2,0.9,2,2V44.8z M50.9,44.8"/>
	<path fill="#F6ECEE" d="M48.9,31.8h-6c1.1,0,2,0.9,2,2v4.8c0,1.1-0.9,1.9-1.9,1.9H11.6v4.3h39.2v-11C50.9,32.7,50,31.8,48.9,31.8
		L48.9,31.8z M48.9,31.8"/>
	<path fill="#F9F3F6" d="M57,56H5.5V45.1c0-1.1,0.9-2,2-2H55c1.1,0,2,0.9,2,2V56z M57,56"/>
	<path fill="#F6ECEE" d="M55,43.1h-6c1.1,0,2,0.9,2,2v5.4c0,1.5-1.2,2.7-2.7,2.7H5.5V56H57V45.1C57,44,56.1,43.1,55,43.1L55,43.1z
		 M55,43.1"/>
	<path fill="#E7C9D1" d="M35,5.2c-1.2,0-2.3,0.5-3.2,1.2c-0.3,0.3-0.8,0.3-1.1,0c-0.8-0.8-2-1.2-3.2-1.2c-2.8,0-4.9,2.5-4.7,5.3
		c0.5,5.6,8.4,8.6,8.4,8.6s7.9-3.1,8.4-8.6C39.9,7.7,37.8,5.3,35,5.2L35,5.2z M33.7,14.4c-0.8,0.6-1.7,1.1-2.3,1.5c0,0-0.1,0-0.1,0
		c0,0-0.1,0-0.1,0c-0.6-0.3-1.5-0.8-2.3-1.5c-2.3-1.7-2.8-3.3-2.8-4.2c0-1.1,0.9-1.9,1.9-1.9c1.4,0,2.5,1.1,3,1.8c0,0,0,0,0,0
		c0.1,0.2,0.4,0.2,0.6,0c0,0,0,0,0,0c0.5-0.7,1.6-1.8,3-1.8c1.1,0,1.9,0.9,1.9,1.9C36.5,11.1,36,12.6,33.7,14.4L33.7,14.4z
		 M33.7,14.4"/>
	<path fill="#E0BEC7" d="M43.2,21.7H19.3c-1.1,0-2,0.9-2,2v3.5c2.3,0,2.3-2.1,4.6-2.1c2.3,0,2.3,2.1,4.6,2.1c2.3,0,2.3-2.1,4.6-2.1
		c2.3,0,2.3,2.1,4.6,2.1c2.3,0,2.3-2.1,4.6-2.1c2.3,0,2.3,2.1,4.6,2.1v-3.5C45.2,22.6,44.3,21.7,43.2,21.7L43.2,21.7z M43.2,21.7"/>
	<path fill="#DDB7C1" d="M43.2,21.7h-6c1.1,0,2,0.9,2,2v1.7c0.4-0.2,0.8-0.3,1.4-0.3c2.3,0,2.3,2.1,4.6,2.1v-3.5
		C45.2,22.6,44.3,21.7,43.2,21.7L43.2,21.7z M43.2,21.7"/>
	<path fill="#F5EAEC" d="M48.9,31.8H13.6c-1.1,0-2,0.9-2,2v3.5c2.5,0,2.5-2.1,4.9-2.1c2.5,0,2.5,2.1,4.9,2.1c2.5,0,2.5-2.1,4.9-2.1
		c2.5,0,2.5,2.1,4.9,2.1c2.5,0,2.5-2.1,4.9-2.1c2.5,0,2.5,2.1,4.9,2.1c2.5,0,2.5-2.1,4.9-2.1c2.5,0,2.5,2.1,4.9,2.1v-3.5
		C50.9,32.7,50,31.8,48.9,31.8L48.9,31.8z M48.9,31.8"/>
	<path fill="#EED9DE" d="M48.9,31.8h-6c1.1,0,2,0.9,2,2v1.6c0.3-0.1,0.7-0.2,1.1-0.2c2.5,0,2.5,2.1,4.9,2.1v-3.5
		C50.9,32.7,50,31.8,48.9,31.8L48.9,31.8z M48.9,31.8"/>
	<path fill="#DFBAC5" d="M55,43.1H7.5c-1.1,0-2,0.9-2,2v3.5c2.6,0,2.6-2.1,5.1-2.1c2.6,0,2.6,2.1,5.2,2.1c2.6,0,2.6-2.1,5.2-2.1
		s2.6,2.1,5.2,2.1c2.6,0,2.6-2.1,5.2-2.1c2.6,0,2.6,2.1,5.2,2.1c2.6,0,2.6-2.1,5.2-2.1s2.6,2.1,5.2,2.1c2.6,0,2.6-2.1,5.2-2.1
		c2.6,0,2.6,2,5.1,2.1v-3.5C57,44,56.1,43.1,55,43.1L55,43.1z M55,43.1"/>
	<path fill="#DCB2BE" d="M55,43.1h-6c1.1,0,2,0.9,2,2v1.5c0.3-0.1,0.6-0.1,0.9-0.1c2.6,0,2.6,2,5.1,2.1v-3.5
		C57,44,56.1,43.1,55,43.1L55,43.1z M55,43.1"/>
	<path fill="#EED9DE" d="M58.9,59.9H3.6c-0.6,0-1-0.4-1-1v-2.3c0-0.6,0.4-1,1-1h55.3c0.6,0,1,0.4,1,1v2.3
		C59.9,59.4,59.5,59.9,58.9,59.9L58.9,59.9z M58.9,59.9"/>
	<path fill="#E9CFD6" d="M58.9,55.6h-5v4.3h5c0.6,0,1-0.4,1-1v-2.3C59.9,56,59.5,55.6,58.9,55.6L58.9,55.6z M58.9,55.6"/>
	<path fill="#E1BFC7" d="M35,5.2c-1.2,0-2.3,0.5-3.2,1.2c-0.2,0.1-0.3,0.2-0.5,0.2v3.5c0.1,0,0.2,0,0.3-0.1c0,0,0,0,0,0
		c0.5-0.7,1.6-1.8,3-1.8c1.1,0,1.9,0.9,1.9,1.9c0,1-0.5,2.5-2.8,4.2c-0.8,0.6-1.7,1.1-2.3,1.5c0,0-0.1,0-0.1,0v3.3
		c0,0,7.9-3.1,8.4-8.6C39.9,7.7,37.8,5.3,35,5.2L35,5.2z M35,5.2"/>
	<path d="M58.9,54.7h-1.1v-9.7c0-1.6-1.3-2.9-2.9-2.9h-3.3v-8.4c0-1.6-1.3-2.9-2.9-2.9H46v-7.3c0-1.6-1.3-2.9-2.9-2.9H32.1v-1.1
		c1.9-0.8,7.9-4,8.4-9.1C40.6,9,40.1,7.4,39,6.2C38,5,36.5,4.4,35,4.4c-1.4,0-2.7,0.5-3.7,1.4c-1-0.9-2.3-1.4-3.7-1.4h0
		c-1.6,0-3,0.6-4,1.8C22.4,7.4,21.9,9,22,10.6c0.5,5.2,6.5,8.3,8.4,9.1v1.1h-5.1c-0.5,0-0.9,0.4-0.9,0.9c0,0.5,0.4,0.9,0.9,0.9h17.8
		c0.6,0,1.1,0.5,1.1,1.1v2.4c-0.3-0.1-0.6-0.4-0.9-0.6c-0.6-0.6-1.4-1.3-2.9-1.3c-1.5,0-2.3,0.7-2.9,1.3c-0.5,0.5-0.9,0.8-1.7,0.8
		c-0.8,0-1.2-0.3-1.7-0.8c-0.6-0.6-1.4-1.3-2.9-1.3c-1.5,0-2.3,0.7-2.9,1.3c-0.5,0.5-0.9,0.8-1.7,0.8c-0.8,0-1.2-0.3-1.7-0.8
		c-0.6-0.6-1.4-1.3-2.9-1.3c-1.5,0-2.3,0.7-2.9,1.3c-0.3,0.3-0.6,0.5-0.9,0.6v-2.4c0-0.6,0.5-1.1,1.1-1.1h2c0.5,0,0.9-0.4,0.9-0.9
		c0-0.5-0.4-0.9-0.9-0.9h-2c-1.6,0-2.9,1.3-2.9,2.9V31h-2.8c-1.6,0-2.9,1.3-2.9,2.9v8.4H7.5c-1.6,0-2.9,1.3-2.9,2.9v9.7h-1
		c-1,0-1.9,0.8-1.9,1.9v2.3c0,1,0.8,1.9,1.9,1.9h55.3c1,0,1.9-0.8,1.9-1.9v-2.3C60.8,55.6,60,54.7,58.9,54.7L58.9,54.7z M23.7,10.4
		c-0.1-1.1,0.3-2.2,1-3.1c0.7-0.8,1.7-1.2,2.8-1.2h0c1,0,1.9,0.4,2.6,1c0.6,0.6,1.6,0.6,2.2,0c0.7-0.6,1.6-1,2.6-1h0
		c1.1,0,2,0.4,2.8,1.2c0.8,0.8,1.1,1.9,1,3.1c-0.4,4.4-6.1,7.2-7.5,7.8C29.8,17.6,24.1,14.8,23.7,10.4L23.7,10.4z M18.2,27.9
		c1-0.2,1.5-0.7,2-1.2c0.5-0.5,0.9-0.8,1.7-0.8c0.8,0,1.2,0.3,1.7,0.8c0.6,0.6,1.4,1.3,2.9,1.3c1.5,0,2.3-0.7,2.9-1.3
		c0.5-0.5,0.9-0.8,1.7-0.8c0.8,0,1.2,0.3,1.7,0.8c0.6,0.6,1.4,1.3,2.9,1.3c1.5,0,2.3-0.7,2.9-1.3c0.5-0.5,0.9-0.8,1.7-0.8
		c0.8,0,1.2,0.3,1.7,0.8c0.5,0.4,1.1,1,2,1.2V31H18.2V27.9z M12.5,33.8c0-0.6,0.5-1.1,1.1-1.1h35.2c0.6,0,1.1,0.5,1.1,1.1v2.5
		c-0.4-0.1-0.7-0.4-1-0.7c-0.7-0.6-1.5-1.2-3-1.2c-1.5,0-2.4,0.7-3,1.2c-0.6,0.5-1,0.8-1.9,0.8c-0.9,0-1.3-0.3-1.9-0.8
		c-0.7-0.6-1.5-1.2-3-1.2c-1.5,0-2.4,0.7-3,1.2c-0.6,0.5-1,0.8-1.9,0.8c-0.9,0-1.3-0.3-1.9-0.8c-0.7-0.6-1.5-1.2-3-1.2
		c-1.5,0-2.4,0.7-3,1.2c-0.6,0.5-1,0.8-1.9,0.8c-0.9,0-1.3-0.3-1.9-0.8c-0.7-0.6-1.5-1.2-3-1.2c-1.5,0-2.4,0.7-3,1.2
		c-0.4,0.3-0.6,0.5-1,0.7V33.8z M6.4,45.1c0-0.6,0.5-1.1,1.1-1.1h34.8c0.5,0,0.9-0.4,0.9-0.9c0-0.5-0.4-0.9-0.9-0.9H12.5v-4.2
		c1-0.2,1.6-0.7,2.1-1.2c0.6-0.5,1-0.8,1.9-0.8c0.9,0,1.3,0.3,1.9,0.8c0.7,0.6,1.5,1.2,3,1.2c1.5,0,2.4-0.7,3-1.2
		c0.6-0.5,1-0.8,1.9-0.8c0.9,0,1.3,0.3,1.9,0.8c0.7,0.6,1.5,1.2,3,1.2c1.5,0,2.4-0.7,3-1.2c0.6-0.5,1-0.8,1.9-0.8
		c0.9,0,1.3,0.3,1.9,0.8c0.7,0.6,1.5,1.2,3,1.2c1.5,0,2.4-0.7,3-1.2c0.6-0.5,1-0.8,1.9-0.8c0.9,0,1.3,0.3,1.9,0.8
		c0.5,0.4,1.1,1,2.1,1.2v4.2h-3.7c-0.5,0-0.9,0.4-0.9,0.9c0,0.5,0.4,0.9,0.9,0.9H55c0.6,0,1.1,0.5,1.1,1.1v2.5
		c-0.4-0.1-0.7-0.4-1.1-0.7c-0.7-0.5-1.5-1.2-3.1-1.2c-1.6,0-2.4,0.7-3.1,1.2c-0.6,0.5-1.1,0.8-2,0.8c-1,0-1.4-0.4-2-0.8
		c-0.7-0.5-1.5-1.2-3.1-1.2c-1.6,0-2.4,0.7-3.1,1.2c-0.6,0.5-1.1,0.8-2,0.8c-1,0-1.4-0.4-2-0.8c-0.7-0.5-1.5-1.2-3.1-1.2
		c-1.6,0-2.4,0.7-3.1,1.2c-0.6,0.5-1.1,0.8-2,0.8c-1,0-1.4-0.4-2-0.8c-0.7-0.5-1.5-1.2-3.1-1.2c-1.6,0-2.4,0.7-3.1,1.2
		c-0.6,0.5-1.1,0.8-2,0.8c-1,0-1.4-0.4-2-0.8c-0.7-0.5-1.5-1.2-3.1-1.2c-1.6,0-2.4,0.7-3.1,1.2c-0.4,0.3-0.7,0.6-1.2,0.7V45.1z
		 M6.4,49.3c1-0.2,1.7-0.7,2.2-1.2c0.6-0.5,1.1-0.8,2-0.8c1,0,1.4,0.4,2,0.8c0.7,0.5,1.5,1.2,3.1,1.2c1.6,0,2.4-0.7,3.1-1.2
		c0.6-0.5,1.1-0.8,2-0.8c1,0,1.4,0.4,2,0.8c0.7,0.5,1.5,1.2,3.1,1.2c1.6,0,2.4-0.7,3.1-1.2c0.6-0.5,1.1-0.8,2-0.8c1,0,1.4,0.4,2,0.8
		c0.7,0.5,1.5,1.2,3.1,1.2s2.4-0.7,3.1-1.2c0.6-0.5,1.1-0.8,2-0.8c1,0,1.4,0.4,2,0.8c0.7,0.5,1.5,1.2,3.1,1.2c1.6,0,2.4-0.7,3.1-1.2
		c0.6-0.5,1.1-0.8,2-0.8c1,0,1.4,0.4,2,0.8c0.5,0.4,1.2,0.9,2.2,1.1v5.4H6.4V49.3z M59.1,58.9c0,0.1-0.1,0.1-0.1,0.1H3.6
		c-0.1,0-0.1-0.1-0.1-0.1v-2.3c0-0.1,0.1-0.1,0.1-0.1h55.3c0.1,0,0.1,0.1,0.1,0.1V58.9z M59.1,58.9"/>
	<path d="M34.6,7.4c-1.5,0-2.6,0.9-3.3,1.7c-0.7-0.8-1.8-1.7-3.3-1.7c-1.5,0-2.8,1.2-2.8,2.8c0,1.2,0.5,3,3.1,4.9
		c0.9,0.7,1.9,1.2,2.5,1.5c0.1,0.1,0.3,0.1,0.5,0.1c0.2,0,0.3,0,0.5-0.1c0.6-0.3,1.6-0.8,2.5-1.5c2.6-2,3.1-3.8,3.1-4.9
		C37.4,8.6,36.1,7.4,34.6,7.4L34.6,7.4z M33.2,13.7c-0.7,0.5-1.4,0.9-1.9,1.2c-0.5-0.3-1.2-0.7-1.9-1.2c-1.6-1.2-2.5-2.5-2.5-3.6
		c0-0.6,0.5-1.1,1.1-1.1c1.1,0,1.9,0.9,2.4,1.5c0,0,0,0,0,0c0.2,0.3,0.6,0.5,1,0.5c0.4,0,0.7-0.2,1-0.5c0,0,0,0,0,0
		c0.4-0.5,1.3-1.5,2.4-1.5c0.6,0,1.1,0.5,1.1,1.1C35.6,11.2,34.8,12.5,33.2,13.7L33.2,13.7z M33.2,13.7"/>
</g>
</svg>
