<svg xmlns="http://www.w3.org/2000/svg" viewBox="0 0 274.57 82.91"><defs><style>.cls-1{isolation:isolate;}.cls-2{font-size:34px;font-family:BerkshireSwash-Regular, Berkshire Swash;}.cls-2,.cls-8{fill:#493d3b;}.cls-3{letter-spacing:-0.01em;}.cls-4{fill:#b19e7f;}.cls-5{fill:#fff;}.cls-6{fill:#85775f;}.cls-7{fill:none;stroke:#85775f;stroke-miterlimit:10;stroke-width:0.39px;}.cls-9{fill:#5b4b49;opacity:0.35;}.cls-11,.cls-9{mix-blend-mode:screen;}.cls-10,.cls-11{fill:#c63838;}.cls-11{opacity:0.51;}.cls-12{fill:#86300d;}</style></defs><g class="cls-1"><g id="Objects"><text class="cls-2" transform="translate(88.22 32.14)"><tspan class="cls-3">F</tspan><tspan x="21.18" y="0">ancyflower </tspan><tspan x="0" y="40.8">Ca</tspan><tspan class="cls-3" x="35.46" y="40.8">k</tspan><tspan x="53.17" y="40.8">es</tspan></text><path class="cls-4" d="M22.48,50.23c3.53.66,6.92,2,10.5,2.39,3.1.31,6.26-.15,9.34.33,1.81.29,3.6.91,5.43.76a28.13,28.13,0,0,1,6.48.31c.9.14,1.8.34,2.71.42,2.13.2,4.25-.27,6.39-.35,4.44-.16,8.84,1.38,13.26.9a17.23,17.23,0,0,1,3.2-.28,8.52,8.52,0,0,0,2.3.08,34.48,34.48,0,0,0-.47-7,6.35,6.35,0,0,1-.15-1.15c-2.21-.29-4.45.77-6.69.6-1.18-.08-2.3-.51-3.47-.68-3.27-.5-6.66.95-9.86.16A23.7,23.7,0,0,0,59,46.09a10.3,10.3,0,0,0-2.93.13c-1.39.18-2.67.1-4.05.33A13.16,13.16,0,0,1,47.75,46,23.48,23.48,0,0,0,44,45.76l-6.06-.11a37.7,37.7,0,0,1-4.25-.23,42.31,42.31,0,0,1-4.15-.83q-6.34-1.48-12.77-2.7A79.74,79.74,0,0,1,7.21,39.7a46,46,0,0,0-.88,7.5c3.07.15,6,1.36,9,2C17.69,49.67,20.11,49.79,22.48,50.23Z"/><path class="cls-5" d="M29.54,44.59a42.31,42.31,0,0,0,4.15.83,37.7,37.7,0,0,0,4.25.23l6.06.11a23.48,23.48,0,0,1,3.75.26,13.16,13.16,0,0,0,4.29.53c1.38-.23,2.66-.15,4.05-.33A10.3,10.3,0,0,1,59,46.09a23.7,23.7,0,0,1,2.43.67c3.2.79,6.59-.66,9.86-.16,1.17.17,2.29.6,3.47.68,2.24.17,4.48-.89,6.69-.6a.48.48,0,0,1,0-.12,6.47,6.47,0,0,1,.28-1.29A7.61,7.61,0,0,0,81.62,41a24.37,24.37,0,0,0-5.93-.88Q66.44,40,57.2,39.37A86.62,86.62,0,0,1,46,38c-3.81-.79-7.52-2-11.34-2.77A90.93,90.93,0,0,0,21.52,34l-9.3-.45a4.55,4.55,0,0,0-2.62.4,4.26,4.26,0,0,0-1.55,2.51c-.34,1.09-.61,2.18-.84,3.28a79.74,79.74,0,0,0,9.56,2.19Q23.19,43.11,29.54,44.59Z"/><path class="cls-5" d="M82,61c0-1.71,0-3.41,0-5.12,0-.35,0-.7,0-1a8.52,8.52,0,0,1-2.3-.08,17.23,17.23,0,0,0-3.2.28c-4.42.48-8.82-1.06-13.26-.9-2.14.08-4.26.55-6.39.35-.91-.08-1.81-.28-2.71-.42a28.13,28.13,0,0,0-6.48-.31c-1.83.15-3.62-.47-5.43-.76-3.08-.48-6.24,0-9.34-.33-3.58-.36-7-1.73-10.5-2.39-2.37-.44-4.79-.56-7.15-1-3-.62-5.93-1.83-9-2-.1,2.69,0,5.39.13,8.11,1.33.68,3,.4,4.5.74,1.17.27,2.23.93,3.42,1.19,1,.22,2.06.13,3.06.34a15.05,15.05,0,0,1,2.25.8A16.65,16.65,0,0,0,25,59.5a17.2,17.2,0,0,1,2.69.17c.83.17,1.61.52,2.43.72,2.5.61,5.17-.23,7.71.24,1.61.3,3.12,1.13,4.76,1.24A21.21,21.21,0,0,1,45,62c1.21.22,2.37,1,3.57.75,2.59-.65,5.5,0,8.11.65,1.15.26,2.27.64,3.44.84a17.55,17.55,0,0,0,3.4.18c2.26,0,4.53-.25,6.79-.13a15.1,15.1,0,0,0,3.08,0c1.17-.17,2.36-.7,3.49-.35a5,5,0,0,0,2.73,0,8.19,8.19,0,0,1,2.38-.4,2.26,2.26,0,0,1,0-.26C82,62.49,82,61.72,82,61Z"/><path class="cls-4" d="M79.62,63.92a5,5,0,0,1-2.73,0c-1.13-.35-2.32.18-3.49.35a15.1,15.1,0,0,1-3.08,0c-2.26-.12-4.53.09-6.79.13a17.55,17.55,0,0,1-3.4-.18c-1.17-.2-2.29-.58-3.44-.84-2.61-.61-5.52-1.3-8.11-.65-1.2.3-2.36-.53-3.57-.75a21.21,21.21,0,0,0-2.39-.08c-1.64-.11-3.15-.94-4.76-1.24-2.54-.47-5.21.37-7.71-.24-.82-.2-1.6-.55-2.43-.72A17.2,17.2,0,0,0,25,59.5a16.65,16.65,0,0,1-5.34-1.12,15.05,15.05,0,0,0-2.25-.8c-1-.21-2.06-.12-3.06-.34-1.19-.26-2.25-.92-3.42-1.19-1.49-.34-3.17-.06-4.5-.74.13,2.22.31,4.44.49,6.65-.52.76.55,1.59,1.43,1.87a96,96,0,0,0,14,3.07,368.39,368.39,0,0,0,49.84,4.53c3.18.07,6.48.08,9.39-1.22.23-1.84.27-3.88.33-5.73,0-.32,0-.64,0-1A8.19,8.19,0,0,0,79.62,63.92Z"/><path class="cls-6" d="M70.74,67.42a1,1,0,0,0-.16.58c0,.37.41.6.74.76s.9.45,1.36.66a1.77,1.77,0,0,0,2.56-.74,1.67,1.67,0,0,0,.52-1.21,1.12,1.12,0,0,0-.54-.74,2.82,2.82,0,0,0-.88-.32C72.92,66.09,71.59,66,70.74,67.42Z"/><path class="cls-6" d="M77.54,67.08c-.21-.06-.33.23-.34.45s-.06.61-.08.92a.3.3,0,0,0,0,.21.39.39,0,0,0,.14.08,1,1,0,0,0,1.14-.5.82.82,0,0,0,0-.89.59.59,0,0,0-.83-.09"/><path class="cls-6" d="M65.83,67.75c-.07.34-.09.79.21,1a.57.57,0,0,0,.71-.19,1.27,1.27,0,0,0,.17-.77.44.44,0,0,0,0-.22.38.38,0,0,0-.49,0,3.4,3.4,0,0,1-.45.28"/><path class="cls-6" d="M48.26,66.17a1.54,1.54,0,0,0-.59.36.63.63,0,0,0-.15.65,1,1,0,0,0,.22.28l1.19,1.17a2.36,2.36,0,0,0,.55.45,1.3,1.3,0,0,0,1.14,0,1.27,1.27,0,0,0,.72-.89,2.5,2.5,0,0,0,0-.61c0-.29,0-.57,0-.86a2,2,0,0,0-.08-.64,1,1,0,0,0-.7-.61A5.56,5.56,0,0,0,48.26,66.17Z"/><path class="cls-6" d="M55.88,67.23a.64.64,0,0,0-.4.65.62.62,0,0,0,.51.55.84.84,0,0,0,.87-.88.68.68,0,0,0-.14-.44.81.81,0,0,0-.94,0"/><path class="cls-6" d="M28,66a1.56,1.56,0,0,0,.78.33,4.76,4.76,0,0,0,1.4.17,1.61,1.61,0,0,0,1.21-.66,2,2,0,0,0,.24-1,1.24,1.24,0,0,0-.06-.47,1.41,1.41,0,0,0-.29-.4c-.68-.68-2-1.64-3-.92C27.66,63.6,27.35,65.38,28,66Z"/><path class="cls-6" d="M24.56,63.68a.74.74,0,1,0,.49,1.4.63.63,0,0,0,.31-.29.82.82,0,0,0,.07-.31,1.17,1.17,0,0,0-.16-.78.53.53,0,0,0-.7-.18"/><path class="cls-6" d="M52.78,65.09a1.55,1.55,0,0,0-.29,1.15,4.29,4.29,0,0,0,.34,1.16.49.49,0,0,0,.51-.11,1.39,1.39,0,0,0,.31-.45A2.69,2.69,0,0,0,54,66a1,1,0,0,0-.3-.87.58.58,0,0,0-.84.12"/><path class="cls-6" d="M36.66,65a.58.58,0,0,0-.47.49.5.5,0,0,0,.45.54.52.52,0,0,0,.54-.47.51.51,0,0,0-.49-.51"/><path class="cls-6" d="M10.29,59.3c0,.54,0,1.07,0,1.6a3.22,3.22,0,0,0,.06.69,1.38,1.38,0,0,0,1,1,1.24,1.24,0,0,0,1.3-.56,2.21,2.21,0,0,0,.21-1.11c0-.34,0-.69,0-1a1.65,1.65,0,0,0-.09-.54C12.42,58.48,10.28,58,10.29,59.3Z"/><path class="cls-6" d="M14.67,61.51a2.88,2.88,0,0,0-.74.85.72.72,0,0,0-.12.49.65.65,0,0,0,.46.43,1.11,1.11,0,0,0,1.35-.49.79.79,0,0,0,0-.76.64.64,0,0,0-.69-.29"/><path class="cls-6" d="M22.75,61.28a.22.22,0,0,0,0,.37.21.21,0,1,0-.1-.28"/><path class="cls-6" d="M22.67,62.7c-.07.17,0,.43.17.45a.2.2,0,0,0,.18-.27.2.2,0,0,0-.32,0"/><path class="cls-6" d="M39.57,64.63a.2.2,0,0,0,.28,0,.16.16,0,0,0-.1-.24c-.11,0-.19.14-.11.21"/><path class="cls-6" d="M56.19,49.05a.39.39,0,0,0,.49-.09c.11-.16,0-.42-.21-.38a.25.25,0,0,0-.18.24.61.61,0,0,0,.08.32"/><path class="cls-6" d="M57.75,50.6a.9.9,0,0,0,.15.87.58.58,0,0,0,.82.05.91.91,0,0,0,.17-.67.49.49,0,0,0,0-.24.58.58,0,0,0-.17-.14,1,1,0,0,0-.5-.18.42.42,0,0,0-.42.26"/><path class="cls-6" d="M31.7,49.34a.59.59,0,0,0,.1.57.37.37,0,0,0,.53,0,.6.6,0,0,0,.12-.44.25.25,0,0,0,0-.15.24.24,0,0,0-.11-.09.66.66,0,0,0-.32-.12.27.27,0,0,0-.28.17"/><path class="cls-6" d="M53.35,50.3a.33.33,0,0,0,.39-.07c.09-.12,0-.33-.13-.33a.22.22,0,0,0-.19.17.8.8,0,0,0,0,.27"/><path class="cls-6" d="M34.18,47.34a.3.3,0,0,0,.36.26.26.26,0,0,0,.13-.41.24.24,0,0,0-.4.1"/><path class="cls-6" d="M35.54,49a.41.41,0,0,0,.4-.11.25.25,0,0,0-.08-.37c-.13-.06-.31.11-.23.23"/><path class="cls-6" d="M17.82,45.58a.43.43,0,0,0,.4,0,.18.18,0,0,0,0-.29c-.11,0-.21.16-.11.22"/><path class="cls-6" d="M14.05,44.39a.35.35,0,0,0,.2-.4H14a.52.52,0,0,0,.09.38"/><path class="cls-6" d="M14.43,45.9c.16.05.4.05.43-.11a.15.15,0,1,0-.29,0"/><path class="cls-6" d="M53.61,52a.33.33,0,0,0,.29.24.23.23,0,0,0,.22-.28c0-.12-.27-.14-.31,0"/><path class="cls-6" d="M44.75,50.42a.14.14,0,0,0,.2.09.16.16,0,0,0,0-.23.17.17,0,0,0-.23,0,.16.16,0,0,0,0,.23"/><path class="cls-6" d="M76.61,50.77a.3.3,0,0,0,.42,0,.25.25,0,0,0,0-.39c-.15-.06-.33.11-.27.25"/><path class="cls-7" d="M79,52.35a.15.15,0,0,0,.22.12.18.18,0,0,0,0-.27.23.23,0,0,0-.28,0,.12.12,0,0,0,.12.14"/><path class="cls-8" d="M83.05,39.82a1.76,1.76,0,0,1-1.88,1.53,14.75,14.75,0,0,0-2.73-.14c-1.13.22-2,1.23-3.13,1.44s-2-.24-3,0a3.32,3.32,0,0,0-2.16,2.14c-.83,2.16-.28,4.57.07,6.86a35.52,35.52,0,0,1,.32,7.64c-.09,1.32-.35,2.82-1.47,3.54A2.36,2.36,0,0,1,65.85,62a4.09,4.09,0,0,1-.37-1.63C65.21,56.15,66.55,52,66,47.8a3.85,3.85,0,0,0-.46-1.6,1.66,1.66,0,0,0-1.37-.84,5.09,5.09,0,0,1-1.78,0c-.35.24-.85,0-1.07-.39s-.29-.81-.49-1.19a2.67,2.67,0,0,0-2.66-1c-1,.12-2,.54-3,.69-3.39.51-6.63-2.13-10-1.74-1.9.21-3.72,1.37-5.6,1S36,40.48,34.18,41.09c-.76.26-1.36.92-2.14,1.09-1.82.4-3.48-2-5.25-1.41-1.14.39-1.53,1.83-1.46,3s.41,2.46,0,3.61-2,2-2.82,1.09a2.16,2.16,0,0,1-.44-1.57c0-1.73.74-3.51.17-5.15a7.09,7.09,0,0,0-2.4-2.88,3.24,3.24,0,0,0-2.17-1c-.74,0-1.41.6-2.15.51-1.32-.16-1.61-2.09-2.79-2.7a2.26,2.26,0,0,0-2.72.93,6.56,6.56,0,0,0-.85,3A127.61,127.61,0,0,0,8,56.18a32.6,32.6,0,0,1-.16,5.32c-.1.68-.45,1.52-1.14,1.49s-1-.94-1-1.66A185.26,185.26,0,0,1,5,39.48c.09-3.35.37-6.95,2.48-9.55S13,26.33,16,25.08c6.7-2.73,12.83-7.23,20-8.16,2.58-.34,4.73.92,7.19,1.77l12.3,4.23c1.86.64,3.72,1.28,5.52,2.07,1.57.7,3.09,1.52,4.61,2.34L79.9,35a6.22,6.22,0,0,1,1.95,1.4A4.64,4.64,0,0,1,83.05,39.82Z"/><path class="cls-9" d="M68.37,59.37a4.86,4.86,0,0,0-.57,1.14.84.84,0,0,0,.52,1,.75.75,0,0,0,.73-.34,2,2,0,0,0,.29-.81,17.68,17.68,0,0,0,.16-5.76c0-.29-.19-.67-.48-.63s-.34.44-.31.73C68.87,56.22,69.11,58,68.37,59.37Z"/><path class="cls-9" d="M23.6,47.59a.4.4,0,0,0,.43.25.79.79,0,0,0,.45-.28,1.44,1.44,0,0,0,.32-.81.41.41,0,0,0-.7-.35A2,2,0,0,0,23.6,47.59Z"/><path class="cls-9" d="M54.14,42.74a1.15,1.15,0,0,0,.69-.08.5.5,0,0,0,.26-.58c-.12-.29-.52-.31-.83-.3a6.15,6.15,0,0,1-1.48-.15A9.44,9.44,0,0,0,49.55,41c-.2,0-.47.17-.39.36s.22.15.35.16a8.54,8.54,0,0,1,1.34.08,4.71,4.71,0,0,1,1,.46A6.53,6.53,0,0,0,54.14,42.74Z"/><path class="cls-9" d="M32,19.45c-1.31-.07-2.75,1-3.88,1.57a147.25,147.25,0,0,1-14.29,6.4c-2.06.75-4.34,1.55-5.45,3.45A2,2,0,0,0,8.25,33a2,2,0,0,0,1.77.58A10.63,10.63,0,0,1,12,33.37c1.15.1,2.1,1,3.23,1.2a1.22,1.22,0,0,0,.63,0,1.2,1.2,0,0,0,.7-1c.06-.44,0-.89.09-1.32.24-1.23,1.52-1.92,2.66-2.45a42.71,42.71,0,0,1,8.88-2.9c3-.65,6.18-1.62,8.2-3.95.73-.85,1.27-2.17.55-3a2.28,2.28,0,0,0-1.07-.63C34.47,18.81,33.43,19.53,32,19.45Z"/><path class="cls-9" d="M62.23,43.42a1.09,1.09,0,0,0,.34,1,.67.67,0,0,0,.91-.34.85.85,0,0,0-.33-1c-.28-.21-.79-.16-.87.19"/><path class="cls-9" d="M80.83,36.88A3.14,3.14,0,0,1,81.94,39a1.11,1.11,0,0,1-.53,1.11,1.37,1.37,0,0,1-.8,0l-.83-.19a1.5,1.5,0,0,1-.68-.27c-.45-.37-.35-1.08-.49-1.65-.22-.9-1.07-1.47-1.78-2.07a2.25,2.25,0,0,1-.56-.63.37.37,0,0,1,0-.32.37.37,0,0,1,.33-.18c.74-.06,1.47.55,2.11.85A8.07,8.07,0,0,1,80.83,36.88Z"/><path class="cls-9" d="M27.71,36.74c1.57.57,3.08,1.55,4.75,1.5a19.18,19.18,0,0,0,3.21-.76c2.23-.47,4.55.19,6.8-.1a1.43,1.43,0,0,0,.8-.28.58.58,0,0,0,.13-.76,25.67,25.67,0,0,1-6.83-.52c-1.31-.28-2.6-.67-3.94-.82-1.6-.18-3.21,0-4.81-.12-1.31-.1-3-1-4.3-.56-1,.31-1.58,1.3-.43,1.74C24.48,36.6,26.23,36.21,27.71,36.74Z"/><path class="cls-10" d="M35.79,16.36a7.28,7.28,0,0,0-2,4.46,7.11,7.11,0,0,0,1,4.47,5.06,5.06,0,0,0,3.8,2.39c.72.05,1.45-.08,2.17-.06,1.57.05,3.07.82,4.64.74A5.21,5.21,0,0,0,49.3,26a8.05,8.05,0,0,0,1.27-4.52,7.47,7.47,0,0,0-.72-3.39,4.38,4.38,0,0,0-3.05-2.38c-1.15-.2-2.33.08-3.49-.13s-2.5-.87-3.83-.85A5.54,5.54,0,0,0,35.79,16.36Z"/><path class="cls-11" d="M47,20.93a1.46,1.46,0,0,0,.34.87,1,1,0,0,0,1.4-.26A2.21,2.21,0,0,0,49,20a2.49,2.49,0,0,0-.38-1.1,1,1,0,0,0-1.78.06C46.61,19.48,46.94,20.39,47,20.93Z"/><path class="cls-8" d="M43.1,17.78c1.06-4.49,4.68-7.81,8.51-9.87a8.5,8.5,0,0,1,3.15-1.12,16.25,16.25,0,0,0,1.7-.15,1.82,1.82,0,0,0,1.33-.95,1,1,0,0,0-.64-1.34,1.51,1.51,0,0,0-.8.2c-.78.35-1.55.74-2.31,1.13a36.12,36.12,0,0,0-7.29,4.66,15.05,15.05,0,0,0-4.59,7.33A1.53,1.53,0,0,0,43.1,17.78Z"/><path class="cls-12" d="M40.07,15.93a3.71,3.71,0,0,0,2.8,1.52,3.54,3.54,0,0,0,1.57-.29,3.77,3.77,0,0,1,1.7-.53,9,9,0,0,0-1.46,1,3.18,3.18,0,0,1-1.83.5,3.07,3.07,0,0,1-1.78-.65A2.69,2.69,0,0,1,40.07,15.93Z"/></g></g></svg>